<svg id="Layer_1" data-name="Layer 1" xmlns="http://www.w3.org/2000/svg" viewBox="0 0 164 68.49"><defs><style>.cls-1{fill:#f4f4f4;}.cls-2{fill:none;stroke:#fff;stroke-miterlimit:10;}</style></defs><path class="cls-1" d="M163.78,33.94C159.79,4.72,41.31,1.33,0,0,0,0,66.1,10.92,66.84,34.23S2.21,68.31,2.21,68.31c37.48,1.19,150.36-3.09,161.57-29.95C164.07,37.77,164.07,36.15,163.78,33.94ZM62,59.46c0-.29,18.15-7.52,22.58-22.57a15,15,0,0,0,.73-4.13c.45-12.84-17.7-21.84-20.65-23.32C84.55,11.66,98.86,22.57,99.3,32.76,100.19,49.87,62.27,59.76,62,59.46ZM104.17,54C103.58,53,121,44.71,120,35.41a4.39,4.39,0,0,0-.45-1.77c-3-10.47-14.31-16.67-14-17.26.59-.89,28.18,6.49,27.59,19.77C132.5,49.13,104.91,55.33,104.17,54Z"/><path class="cls-2" d="M99.3,32.9c.89,17-37,27-37.33,26.56,0-.29,18.15-7.52,22.58-22.57a15,15,0,0,0,.73-4.13c.45-12.84-17.7-21.84-20.65-23.32C84.55,11.8,98.71,22.72,99.3,32.9Z"/></svg>